<?xml version="1.0" encoding="utf-8" standalone="no"?>
<!DOCTYPE svg PUBLIC "-//W3C//DTD SVG 1.1//EN"
  "http://www.w3.org/Graphics/SVG/1.1/DTD/svg11.dtd">
<svg xmlns:xlink="http://www.w3.org/1999/xlink" width="720pt" height="576pt" viewBox="0 0 720 576" xmlns="http://www.w3.org/2000/svg" version="1.1">
 <metadata>
  <rdf:RDF xmlns:dc="http://purl.org/dc/elements/1.1/" xmlns:cc="http://creativecommons.org/ns#" xmlns:rdf="http://www.w3.org/1999/02/22-rdf-syntax-ns#">
   <cc:Work>
    <dc:type rdf:resource="http://purl.org/dc/dcmitype/StillImage"/>
    <dc:date>2025-12-27T21:04:02.948831</dc:date>
    <dc:format>image/svg+xml</dc:format>
    <dc:creator>
     <cc:Agent>
      <dc:title>Matplotlib v3.10.8, https://matplotlib.org/</dc:title>
     </cc:Agent>
    </dc:creator>
   </cc:Work>
  </rdf:RDF>
 </metadata>
 <defs>
  <style type="text/css">*{stroke-linejoin: round; stroke-linecap: butt}</style>
 </defs>
 <g id="figure_1">
  <g id="patch_1">
   <path d="M 0 576 
L 720 576 
L 720 0 
L 0 0 
z
" style="fill: #ffffff"/>
  </g>
  <g id="axes_1">
   <g id="patch_2">
    <path d="M 161.66122 138.895023 
C 142.106292 162.199679 126.926243 188.849903 116.855307 217.556669 
C 106.78437 246.263435 101.987579 276.556325 102.696947 306.970121 
C 103.406314 337.383917 109.610215 367.420228 121.008577 395.626247 
C 132.40694 423.832266 148.812979 449.745781 169.43316 472.113398 
C 190.053342 494.481014 214.549764 512.936195 241.737574 526.586292 
C 268.925385 540.236388 298.359057 548.857718 328.614932 552.03328 
C 358.870807 555.208843 389.453082 552.8866 418.882543 545.178876 
C 448.312004 537.471151 476.106389 524.504251 500.921331 506.905364 
C 525.736273 489.306476 547.165128 467.363994 564.171418 442.139239 
C 581.177708 416.914483 593.482751 388.820813 600.491372 359.217074 
C 607.499993 329.613334 609.097341 298.984641 605.206157 268.812454 
C 601.314972 238.640267 591.999019 209.419018 577.708894 182.562091 
C 563.41877 155.705165 544.388647 131.652664 521.53898 111.56797 
C 498.689314 91.483276 472.394543 75.695517 443.9265 64.96832 
C 415.458458 54.241123 385.283652 48.750275 354.861587 48.761359 
C 324.439521 48.772443 294.268724 54.285279 265.808506 65.033218 
L 354.953522 301.086523 
z
" style="fill: #0d300d; opacity: 0.5; stroke: #0d300d; stroke-linejoin: miter"/>
   </g>
   <g id="patch_3">
    <path d="M 258.510108 54.742271 
C 243.532996 60.398346 229.128101 67.467015 215.490399 75.85261 
C 201.852697 84.238204 189.043972 93.902719 177.237555 104.715369 
L 347.655129 290.795582 
z
" style="fill: #4d2604; opacity: 0.5; stroke: #4d2604; stroke-linejoin: miter"/>
   </g>
   <g id="patch_4">
    <path d="M 177.237555 104.715369 
C 176.017124 105.833079 174.807793 106.962684 173.609591 108.104186 
C 172.411389 109.245689 171.224346 110.399012 170.048839 111.563871 
L 347.655129 290.795582 
z
" style="fill: #400c0c; opacity: 0.5; stroke: #400c0c; stroke-linejoin: miter"/>
   </g>
   <g id="patch_5">
    <path d="M 170.048839 111.563871 
C 167.305859 114.281975 164.62573 117.062615 162.010377 119.903745 
C 159.395024 122.744874 156.84517 125.645757 154.362964 128.603926 
L 347.655129 290.795582 
z
" style="fill: #2c1f39; opacity: 0.5; stroke: #2c1f39; stroke-linejoin: miter"/>
   </g>
   <g id="patch_6">
    <path d="M 166.707724 133.848519 
C 147.152796 157.153175 131.972746 183.8034 121.90181 212.510166 
C 111.830874 241.216932 107.034083 271.509822 107.74345 301.923617 
C 108.452818 332.337413 114.656719 362.373724 126.055081 390.579743 
C 137.453443 418.785762 153.859482 444.699277 174.479664 467.066894 
C 195.099846 489.434511 219.596268 507.889691 246.784078 521.539788 
C 273.971888 535.189885 303.40556 543.811214 333.661435 546.986777 
C 363.917311 550.162339 394.499586 547.840097 423.929047 540.132372 
C 453.358507 532.424648 481.152893 519.457748 505.967835 501.85886 
C 530.782776 484.259973 552.211631 462.31749 569.217922 437.092735 
C 586.224212 411.86798 598.529255 383.77431 605.537875 354.17057 
C 612.546496 324.56683 614.143845 293.938137 610.25266 263.76595 
C 606.361476 233.593764 597.045522 204.372515 582.755398 177.515588 
C 568.465274 150.658661 549.43515 126.606161 526.585484 106.521467 
C 503.735818 86.436773 477.441046 70.649013 448.973004 59.921816 
C 420.504962 49.194619 390.330155 43.703771 359.90809 43.714855 
C 329.486025 43.72594 299.315227 49.238775 270.85501 59.986714 
L 360.000026 296.040019 
z
" style="fill: #2ca02c"/>
   </g>
   <g id="patch_7">
    <path d="M 263.556612 49.695768 
C 248.579499 55.351843 234.174605 62.420512 220.536903 70.806106 
C 206.899201 79.191701 194.090475 88.856216 182.284059 99.668866 
L 352.701633 285.749079 
z
" style="fill: #ff7f0e"/>
   </g>
   <g id="patch_8">
    <path d="M 182.284059 99.668866 
C 181.063628 100.786575 179.854297 101.916181 178.656095 103.057683 
C 177.457892 104.199185 176.27085 105.352509 175.095343 106.517367 
L 352.701633 285.749079 
z
" style="fill: #d62728"/>
   </g>
   <g id="patch_9">
    <path d="M 175.095343 106.517367 
C 172.352363 109.235472 169.672234 112.016112 167.056881 114.857241 
C 164.441528 117.698371 161.891673 120.599253 159.409467 123.557422 
L 352.701633 285.749079 
z
" style="fill: #9467bd"/>
   </g>
   <g id="matplotlib.axis_1"/>
   <g id="matplotlib.axis_2"/>
   <g id="text_1">
    <!-- Findings -->
    <g transform="translate(520.564671 525.20008) scale(0.1 -0.1)">
     <defs>
      <path id="DejaVuSans-46" d="M 628 4666 
L 3309 4666 
L 3309 4134 
L 1259 4134 
L 1259 2759 
L 3109 2759 
L 3109 2228 
L 1259 2228 
L 1259 0 
L 628 0 
L 628 4666 
z
" transform="scale(0.015625)"/>
      <path id="DejaVuSans-69" d="M 603 3500 
L 1178 3500 
L 1178 0 
L 603 0 
L 603 3500 
z
M 603 4863 
L 1178 4863 
L 1178 4134 
L 603 4134 
L 603 4863 
z
" transform="scale(0.015625)"/>
      <path id="DejaVuSans-6e" d="M 3513 2113 
L 3513 0 
L 2938 0 
L 2938 2094 
Q 2938 2591 2744 2837 
Q 2550 3084 2163 3084 
Q 1697 3084 1428 2787 
Q 1159 2491 1159 1978 
L 1159 0 
L 581 0 
L 581 3500 
L 1159 3500 
L 1159 2956 
Q 1366 3272 1645 3428 
Q 1925 3584 2291 3584 
Q 2894 3584 3203 3211 
Q 3513 2838 3513 2113 
z
" transform="scale(0.015625)"/>
      <path id="DejaVuSans-64" d="M 2906 2969 
L 2906 4863 
L 3481 4863 
L 3481 0 
L 2906 0 
L 2906 525 
Q 2725 213 2448 61 
Q 2172 -91 1784 -91 
Q 1150 -91 751 415 
Q 353 922 353 1747 
Q 353 2572 751 3078 
Q 1150 3584 1784 3584 
Q 2172 3584 2448 3432 
Q 2725 3281 2906 2969 
z
M 947 1747 
Q 947 1113 1208 752 
Q 1469 391 1925 391 
Q 2381 391 2643 752 
Q 2906 1113 2906 1747 
Q 2906 2381 2643 2742 
Q 2381 3103 1925 3103 
Q 1469 3103 1208 2742 
Q 947 2381 947 1747 
z
" transform="scale(0.015625)"/>
      <path id="DejaVuSans-67" d="M 2906 1791 
Q 2906 2416 2648 2759 
Q 2391 3103 1925 3103 
Q 1463 3103 1205 2759 
Q 947 2416 947 1791 
Q 947 1169 1205 825 
Q 1463 481 1925 481 
Q 2391 481 2648 825 
Q 2906 1169 2906 1791 
z
M 3481 434 
Q 3481 -459 3084 -895 
Q 2688 -1331 1869 -1331 
Q 1566 -1331 1297 -1286 
Q 1028 -1241 775 -1147 
L 775 -588 
Q 1028 -725 1275 -790 
Q 1522 -856 1778 -856 
Q 2344 -856 2625 -561 
Q 2906 -266 2906 331 
L 2906 616 
Q 2728 306 2450 153 
Q 2172 0 1784 0 
Q 1141 0 747 490 
Q 353 981 353 1791 
Q 353 2603 747 3093 
Q 1141 3584 1784 3584 
Q 2172 3584 2450 3431 
Q 2728 3278 2906 2969 
L 2906 3500 
L 3481 3500 
L 3481 434 
z
" transform="scale(0.015625)"/>
      <path id="DejaVuSans-73" d="M 2834 3397 
L 2834 2853 
Q 2591 2978 2328 3040 
Q 2066 3103 1784 3103 
Q 1356 3103 1142 2972 
Q 928 2841 928 2578 
Q 928 2378 1081 2264 
Q 1234 2150 1697 2047 
L 1894 2003 
Q 2506 1872 2764 1633 
Q 3022 1394 3022 966 
Q 3022 478 2636 193 
Q 2250 -91 1575 -91 
Q 1294 -91 989 -36 
Q 684 19 347 128 
L 347 722 
Q 666 556 975 473 
Q 1284 391 1588 391 
Q 1994 391 2212 530 
Q 2431 669 2431 922 
Q 2431 1156 2273 1281 
Q 2116 1406 1581 1522 
L 1381 1569 
Q 847 1681 609 1914 
Q 372 2147 372 2553 
Q 372 3047 722 3315 
Q 1072 3584 1716 3584 
Q 2034 3584 2315 3537 
Q 2597 3491 2834 3397 
z
" transform="scale(0.015625)"/>
     </defs>
     <use xlink:href="#DejaVuSans-46"/>
     <use xlink:href="#DejaVuSans-69" transform="translate(50.269531 0)"/>
     <use xlink:href="#DejaVuSans-6e" transform="translate(78.052734 0)"/>
     <use xlink:href="#DejaVuSans-64" transform="translate(141.431641 0)"/>
     <use xlink:href="#DejaVuSans-69" transform="translate(204.908203 0)"/>
     <use xlink:href="#DejaVuSans-6e" transform="translate(232.691406 0)"/>
     <use xlink:href="#DejaVuSans-67" transform="translate(296.070312 0)"/>
     <use xlink:href="#DejaVuSans-73" transform="translate(359.546875 0)"/>
    </g>
   </g>
   <g id="text_2">
    <!-- 91.9% -->
    <g transform="translate(431.697147 416.691771) scale(0.1 -0.1)">
     <defs>
      <path id="DejaVuSans-39" d="M 703 97 
L 703 672 
Q 941 559 1184 500 
Q 1428 441 1663 441 
Q 2288 441 2617 861 
Q 2947 1281 2994 2138 
Q 2813 1869 2534 1725 
Q 2256 1581 1919 1581 
Q 1219 1581 811 2004 
Q 403 2428 403 3163 
Q 403 3881 828 4315 
Q 1253 4750 1959 4750 
Q 2769 4750 3195 4129 
Q 3622 3509 3622 2328 
Q 3622 1225 3098 567 
Q 2575 -91 1691 -91 
Q 1453 -91 1209 -44 
Q 966 3 703 97 
z
M 1959 2075 
Q 2384 2075 2632 2365 
Q 2881 2656 2881 3163 
Q 2881 3666 2632 3958 
Q 2384 4250 1959 4250 
Q 1534 4250 1286 3958 
Q 1038 3666 1038 3163 
Q 1038 2656 1286 2365 
Q 1534 2075 1959 2075 
z
" transform="scale(0.015625)"/>
      <path id="DejaVuSans-31" d="M 794 531 
L 1825 531 
L 1825 4091 
L 703 3866 
L 703 4441 
L 1819 4666 
L 2450 4666 
L 2450 531 
L 3481 531 
L 3481 0 
L 794 0 
L 794 531 
z
" transform="scale(0.015625)"/>
      <path id="DejaVuSans-2e" d="M 684 794 
L 1344 794 
L 1344 0 
L 684 0 
L 684 794 
z
" transform="scale(0.015625)"/>
      <path id="DejaVuSans-25" d="M 4653 2053 
Q 4381 2053 4226 1822 
Q 4072 1591 4072 1178 
Q 4072 772 4226 539 
Q 4381 306 4653 306 
Q 4919 306 5073 539 
Q 5228 772 5228 1178 
Q 5228 1588 5073 1820 
Q 4919 2053 4653 2053 
z
M 4653 2450 
Q 5147 2450 5437 2106 
Q 5728 1763 5728 1178 
Q 5728 594 5436 251 
Q 5144 -91 4653 -91 
Q 4153 -91 3862 251 
Q 3572 594 3572 1178 
Q 3572 1766 3864 2108 
Q 4156 2450 4653 2450 
z
M 1428 4353 
Q 1159 4353 1004 4120 
Q 850 3888 850 3481 
Q 850 3069 1003 2837 
Q 1156 2606 1428 2606 
Q 1700 2606 1854 2837 
Q 2009 3069 2009 3481 
Q 2009 3884 1853 4118 
Q 1697 4353 1428 4353 
z
M 4250 4750 
L 4750 4750 
L 1831 -91 
L 1331 -91 
L 4250 4750 
z
M 1428 4750 
Q 1922 4750 2215 4408 
Q 2509 4066 2509 3481 
Q 2509 2891 2217 2550 
Q 1925 2209 1428 2209 
Q 931 2209 642 2551 
Q 353 2894 353 3481 
Q 353 4063 643 4406 
Q 934 4750 1428 4750 
z
" transform="scale(0.015625)"/>
     </defs>
     <use xlink:href="#DejaVuSans-39"/>
     <use xlink:href="#DejaVuSans-31" transform="translate(63.623047 0)"/>
     <use xlink:href="#DejaVuSans-2e" transform="translate(127.246094 0)"/>
     <use xlink:href="#DejaVuSans-39" transform="translate(159.033203 0)"/>
     <use xlink:href="#DejaVuSans-25" transform="translate(222.65625 0)"/>
    </g>
    <!-- (880) -->
    <g transform="translate(434.135429 427.889584) scale(0.1 -0.1)">
     <defs>
      <path id="DejaVuSans-28" d="M 1984 4856 
Q 1566 4138 1362 3434 
Q 1159 2731 1159 2009 
Q 1159 1288 1364 580 
Q 1569 -128 1984 -844 
L 1484 -844 
Q 1016 -109 783 600 
Q 550 1309 550 2009 
Q 550 2706 781 3412 
Q 1013 4119 1484 4856 
L 1984 4856 
z
" transform="scale(0.015625)"/>
      <path id="DejaVuSans-38" d="M 2034 2216 
Q 1584 2216 1326 1975 
Q 1069 1734 1069 1313 
Q 1069 891 1326 650 
Q 1584 409 2034 409 
Q 2484 409 2743 651 
Q 3003 894 3003 1313 
Q 3003 1734 2745 1975 
Q 2488 2216 2034 2216 
z
M 1403 2484 
Q 997 2584 770 2862 
Q 544 3141 544 3541 
Q 544 4100 942 4425 
Q 1341 4750 2034 4750 
Q 2731 4750 3128 4425 
Q 3525 4100 3525 3541 
Q 3525 3141 3298 2862 
Q 3072 2584 2669 2484 
Q 3125 2378 3379 2068 
Q 3634 1759 3634 1313 
Q 3634 634 3220 271 
Q 2806 -91 2034 -91 
Q 1263 -91 848 271 
Q 434 634 434 1313 
Q 434 1759 690 2068 
Q 947 2378 1403 2484 
z
M 1172 3481 
Q 1172 3119 1398 2916 
Q 1625 2713 2034 2713 
Q 2441 2713 2670 2916 
Q 2900 3119 2900 3481 
Q 2900 3844 2670 4047 
Q 2441 4250 2034 4250 
Q 1625 4250 1398 4047 
Q 1172 3844 1172 3481 
z
" transform="scale(0.015625)"/>
      <path id="DejaVuSans-30" d="M 2034 4250 
Q 1547 4250 1301 3770 
Q 1056 3291 1056 2328 
Q 1056 1369 1301 889 
Q 1547 409 2034 409 
Q 2525 409 2770 889 
Q 3016 1369 3016 2328 
Q 3016 3291 2770 3770 
Q 2525 4250 2034 4250 
z
M 2034 4750 
Q 2819 4750 3233 4129 
Q 3647 3509 3647 2328 
Q 3647 1150 3233 529 
Q 2819 -91 2034 -91 
Q 1250 -91 836 529 
Q 422 1150 422 2328 
Q 422 3509 836 4129 
Q 1250 4750 2034 4750 
z
" transform="scale(0.015625)"/>
      <path id="DejaVuSans-29" d="M 513 4856 
L 1013 4856 
Q 1481 4119 1714 3412 
Q 1947 2706 1947 2009 
Q 1947 1309 1714 600 
Q 1481 -109 1013 -844 
L 513 -844 
Q 928 -128 1133 580 
Q 1338 1288 1338 2009 
Q 1338 2731 1133 3434 
Q 928 4138 513 4856 
z
" transform="scale(0.015625)"/>
     </defs>
     <use xlink:href="#DejaVuSans-28"/>
     <use xlink:href="#DejaVuSans-38" transform="translate(39.013672 0)"/>
     <use xlink:href="#DejaVuSans-38" transform="translate(102.636719 0)"/>
     <use xlink:href="#DejaVuSans-30" transform="translate(166.259766 0)"/>
     <use xlink:href="#DejaVuSans-29" transform="translate(229.882812 0)"/>
    </g>
   </g>
   <g id="text_3">
    <!-- Unknowns -->
    <g transform="translate(155.692318 52.071178) scale(0.1 -0.1)">
     <defs>
      <path id="DejaVuSans-55" d="M 556 4666 
L 1191 4666 
L 1191 1831 
Q 1191 1081 1462 751 
Q 1734 422 2344 422 
Q 2950 422 3222 751 
Q 3494 1081 3494 1831 
L 3494 4666 
L 4128 4666 
L 4128 1753 
Q 4128 841 3676 375 
Q 3225 -91 2344 -91 
Q 1459 -91 1007 375 
Q 556 841 556 1753 
L 556 4666 
z
" transform="scale(0.015625)"/>
      <path id="DejaVuSans-6b" d="M 581 4863 
L 1159 4863 
L 1159 1991 
L 2875 3500 
L 3609 3500 
L 1753 1863 
L 3688 0 
L 2938 0 
L 1159 1709 
L 1159 0 
L 581 0 
L 581 4863 
z
" transform="scale(0.015625)"/>
      <path id="DejaVuSans-6f" d="M 1959 3097 
Q 1497 3097 1228 2736 
Q 959 2375 959 1747 
Q 959 1119 1226 758 
Q 1494 397 1959 397 
Q 2419 397 2687 759 
Q 2956 1122 2956 1747 
Q 2956 2369 2687 2733 
Q 2419 3097 1959 3097 
z
M 1959 3584 
Q 2709 3584 3137 3096 
Q 3566 2609 3566 1747 
Q 3566 888 3137 398 
Q 2709 -91 1959 -91 
Q 1206 -91 779 398 
Q 353 888 353 1747 
Q 353 2609 779 3096 
Q 1206 3584 1959 3584 
z
" transform="scale(0.015625)"/>
      <path id="DejaVuSans-77" d="M 269 3500 
L 844 3500 
L 1563 769 
L 2278 3500 
L 2956 3500 
L 3675 769 
L 4391 3500 
L 4966 3500 
L 4050 0 
L 3372 0 
L 2619 2869 
L 1863 0 
L 1184 0 
L 269 3500 
z
" transform="scale(0.015625)"/>
     </defs>
     <use xlink:href="#DejaVuSans-55"/>
     <use xlink:href="#DejaVuSans-6e" transform="translate(73.193359 0)"/>
     <use xlink:href="#DejaVuSans-6b" transform="translate(136.572266 0)"/>
     <use xlink:href="#DejaVuSans-6e" transform="translate(194.482422 0)"/>
     <use xlink:href="#DejaVuSans-6f" transform="translate(257.861328 0)"/>
     <use xlink:href="#DejaVuSans-77" transform="translate(319.042969 0)"/>
     <use xlink:href="#DejaVuSans-6e" transform="translate(400.830078 0)"/>
     <use xlink:href="#DejaVuSans-73" transform="translate(464.208984 0)"/>
    </g>
   </g>
   <g id="text_4">
    <!-- 6.1% -->
    <g transform="translate(260.700458 153.943761) scale(0.1 -0.1)">
     <defs>
      <path id="DejaVuSans-36" d="M 2113 2584 
Q 1688 2584 1439 2293 
Q 1191 2003 1191 1497 
Q 1191 994 1439 701 
Q 1688 409 2113 409 
Q 2538 409 2786 701 
Q 3034 994 3034 1497 
Q 3034 2003 2786 2293 
Q 2538 2584 2113 2584 
z
M 3366 4563 
L 3366 3988 
Q 3128 4100 2886 4159 
Q 2644 4219 2406 4219 
Q 1781 4219 1451 3797 
Q 1122 3375 1075 2522 
Q 1259 2794 1537 2939 
Q 1816 3084 2150 3084 
Q 2853 3084 3261 2657 
Q 3669 2231 3669 1497 
Q 3669 778 3244 343 
Q 2819 -91 2113 -91 
Q 1303 -91 875 529 
Q 447 1150 447 2328 
Q 447 3434 972 4092 
Q 1497 4750 2381 4750 
Q 2619 4750 2861 4703 
Q 3103 4656 3366 4563 
z
" transform="scale(0.015625)"/>
     </defs>
     <use xlink:href="#DejaVuSans-36"/>
     <use xlink:href="#DejaVuSans-2e" transform="translate(63.623047 0)"/>
     <use xlink:href="#DejaVuSans-31" transform="translate(95.410156 0)"/>
     <use xlink:href="#DejaVuSans-25" transform="translate(159.033203 0)"/>
    </g>
    <!-- (58) -->
    <g transform="translate(263.138739 165.141573) scale(0.1 -0.1)">
     <defs>
      <path id="DejaVuSans-35" d="M 691 4666 
L 3169 4666 
L 3169 4134 
L 1269 4134 
L 1269 2991 
Q 1406 3038 1543 3061 
Q 1681 3084 1819 3084 
Q 2600 3084 3056 2656 
Q 3513 2228 3513 1497 
Q 3513 744 3044 326 
Q 2575 -91 1722 -91 
Q 1428 -91 1123 -41 
Q 819 9 494 109 
L 494 744 
Q 775 591 1075 516 
Q 1375 441 1709 441 
Q 2250 441 2565 725 
Q 2881 1009 2881 1497 
Q 2881 1984 2565 2268 
Q 2250 2553 1709 2553 
Q 1456 2553 1204 2497 
Q 953 2441 691 2322 
L 691 4666 
z
" transform="scale(0.015625)"/>
     </defs>
     <use xlink:href="#DejaVuSans-28"/>
     <use xlink:href="#DejaVuSans-35" transform="translate(39.013672 0)"/>
     <use xlink:href="#DejaVuSans-38" transform="translate(102.636719 0)"/>
     <use xlink:href="#DejaVuSans-29" transform="translate(166.259766 0)"/>
    </g>
   </g>
   <g id="text_5">
    <!-- Dead Ends -->
    <g transform="translate(107.529482 87.54809) scale(0.1 -0.1)">
     <defs>
      <path id="DejaVuSans-44" d="M 1259 4147 
L 1259 519 
L 2022 519 
Q 2988 519 3436 956 
Q 3884 1394 3884 2338 
Q 3884 3275 3436 3711 
Q 2988 4147 2022 4147 
L 1259 4147 
z
M 628 4666 
L 1925 4666 
Q 3281 4666 3915 4102 
Q 4550 3538 4550 2338 
Q 4550 1131 3912 565 
Q 3275 0 1925 0 
L 628 0 
L 628 4666 
z
" transform="scale(0.015625)"/>
      <path id="DejaVuSans-65" d="M 3597 1894 
L 3597 1613 
L 953 1613 
Q 991 1019 1311 708 
Q 1631 397 2203 397 
Q 2534 397 2845 478 
Q 3156 559 3463 722 
L 3463 178 
Q 3153 47 2828 -22 
Q 2503 -91 2169 -91 
Q 1331 -91 842 396 
Q 353 884 353 1716 
Q 353 2575 817 3079 
Q 1281 3584 2069 3584 
Q 2775 3584 3186 3129 
Q 3597 2675 3597 1894 
z
M 3022 2063 
Q 3016 2534 2758 2815 
Q 2500 3097 2075 3097 
Q 1594 3097 1305 2825 
Q 1016 2553 972 2059 
L 3022 2063 
z
" transform="scale(0.015625)"/>
      <path id="DejaVuSans-61" d="M 2194 1759 
Q 1497 1759 1228 1600 
Q 959 1441 959 1056 
Q 959 750 1161 570 
Q 1363 391 1709 391 
Q 2188 391 2477 730 
Q 2766 1069 2766 1631 
L 2766 1759 
L 2194 1759 
z
M 3341 1997 
L 3341 0 
L 2766 0 
L 2766 531 
Q 2569 213 2275 61 
Q 1981 -91 1556 -91 
Q 1019 -91 701 211 
Q 384 513 384 1019 
Q 384 1609 779 1909 
Q 1175 2209 1959 2209 
L 2766 2209 
L 2766 2266 
Q 2766 2663 2505 2880 
Q 2244 3097 1772 3097 
Q 1472 3097 1187 3025 
Q 903 2953 641 2809 
L 641 3341 
Q 956 3463 1253 3523 
Q 1550 3584 1831 3584 
Q 2591 3584 2966 3190 
Q 3341 2797 3341 1997 
z
" transform="scale(0.015625)"/>
      <path id="DejaVuSans-20" transform="scale(0.015625)"/>
      <path id="DejaVuSans-45" d="M 628 4666 
L 3578 4666 
L 3578 4134 
L 1259 4134 
L 1259 2753 
L 3481 2753 
L 3481 2222 
L 1259 2222 
L 1259 531 
L 3634 531 
L 3634 0 
L 628 0 
L 628 4666 
z
" transform="scale(0.015625)"/>
     </defs>
     <use xlink:href="#DejaVuSans-44"/>
     <use xlink:href="#DejaVuSans-65" transform="translate(77.001953 0)"/>
     <use xlink:href="#DejaVuSans-61" transform="translate(138.525391 0)"/>
     <use xlink:href="#DejaVuSans-64" transform="translate(199.804688 0)"/>
     <use xlink:href="#DejaVuSans-20" transform="translate(263.28125 0)"/>
     <use xlink:href="#DejaVuSans-45" transform="translate(295.068359 0)"/>
     <use xlink:href="#DejaVuSans-6e" transform="translate(358.251953 0)"/>
     <use xlink:href="#DejaVuSans-64" transform="translate(421.630859 0)"/>
     <use xlink:href="#DejaVuSans-73" transform="translate(485.107422 0)"/>
    </g>
   </g>
   <g id="text_6">
    <!-- 0.6% -->
    <g transform="translate(235.571866 173.294803) scale(0.1 -0.1)">
     <use xlink:href="#DejaVuSans-30"/>
     <use xlink:href="#DejaVuSans-2e" transform="translate(63.623047 0)"/>
     <use xlink:href="#DejaVuSans-36" transform="translate(95.410156 0)"/>
     <use xlink:href="#DejaVuSans-25" transform="translate(159.033203 0)"/>
    </g>
    <!-- (6) -->
    <g transform="translate(241.191397 184.492616) scale(0.1 -0.1)">
     <use xlink:href="#DejaVuSans-28"/>
     <use xlink:href="#DejaVuSans-36" transform="translate(39.013672 0)"/>
     <use xlink:href="#DejaVuSans-29" transform="translate(102.636719 0)"/>
    </g>
   </g>
   <g id="text_7">
    <!-- Auto-Captured Issues -->
    <g transform="translate(41.127976 100.527824) scale(0.1 -0.1)">
     <defs>
      <path id="DejaVuSans-41" d="M 2188 4044 
L 1331 1722 
L 3047 1722 
L 2188 4044 
z
M 1831 4666 
L 2547 4666 
L 4325 0 
L 3669 0 
L 3244 1197 
L 1141 1197 
L 716 0 
L 50 0 
L 1831 4666 
z
" transform="scale(0.015625)"/>
      <path id="DejaVuSans-75" d="M 544 1381 
L 544 3500 
L 1119 3500 
L 1119 1403 
Q 1119 906 1312 657 
Q 1506 409 1894 409 
Q 2359 409 2629 706 
Q 2900 1003 2900 1516 
L 2900 3500 
L 3475 3500 
L 3475 0 
L 2900 0 
L 2900 538 
Q 2691 219 2414 64 
Q 2138 -91 1772 -91 
Q 1169 -91 856 284 
Q 544 659 544 1381 
z
M 1991 3584 
L 1991 3584 
z
" transform="scale(0.015625)"/>
      <path id="DejaVuSans-74" d="M 1172 4494 
L 1172 3500 
L 2356 3500 
L 2356 3053 
L 1172 3053 
L 1172 1153 
Q 1172 725 1289 603 
Q 1406 481 1766 481 
L 2356 481 
L 2356 0 
L 1766 0 
Q 1100 0 847 248 
Q 594 497 594 1153 
L 594 3053 
L 172 3053 
L 172 3500 
L 594 3500 
L 594 4494 
L 1172 4494 
z
" transform="scale(0.015625)"/>
      <path id="DejaVuSans-2d" d="M 313 2009 
L 1997 2009 
L 1997 1497 
L 313 1497 
L 313 2009 
z
" transform="scale(0.015625)"/>
      <path id="DejaVuSans-43" d="M 4122 4306 
L 4122 3641 
Q 3803 3938 3442 4084 
Q 3081 4231 2675 4231 
Q 1875 4231 1450 3742 
Q 1025 3253 1025 2328 
Q 1025 1406 1450 917 
Q 1875 428 2675 428 
Q 3081 428 3442 575 
Q 3803 722 4122 1019 
L 4122 359 
Q 3791 134 3420 21 
Q 3050 -91 2638 -91 
Q 1578 -91 968 557 
Q 359 1206 359 2328 
Q 359 3453 968 4101 
Q 1578 4750 2638 4750 
Q 3056 4750 3426 4639 
Q 3797 4528 4122 4306 
z
" transform="scale(0.015625)"/>
      <path id="DejaVuSans-70" d="M 1159 525 
L 1159 -1331 
L 581 -1331 
L 581 3500 
L 1159 3500 
L 1159 2969 
Q 1341 3281 1617 3432 
Q 1894 3584 2278 3584 
Q 2916 3584 3314 3078 
Q 3713 2572 3713 1747 
Q 3713 922 3314 415 
Q 2916 -91 2278 -91 
Q 1894 -91 1617 61 
Q 1341 213 1159 525 
z
M 3116 1747 
Q 3116 2381 2855 2742 
Q 2594 3103 2138 3103 
Q 1681 3103 1420 2742 
Q 1159 2381 1159 1747 
Q 1159 1113 1420 752 
Q 1681 391 2138 391 
Q 2594 391 2855 752 
Q 3116 1113 3116 1747 
z
" transform="scale(0.015625)"/>
      <path id="DejaVuSans-72" d="M 2631 2963 
Q 2534 3019 2420 3045 
Q 2306 3072 2169 3072 
Q 1681 3072 1420 2755 
Q 1159 2438 1159 1844 
L 1159 0 
L 581 0 
L 581 3500 
L 1159 3500 
L 1159 2956 
Q 1341 3275 1631 3429 
Q 1922 3584 2338 3584 
Q 2397 3584 2469 3576 
Q 2541 3569 2628 3553 
L 2631 2963 
z
" transform="scale(0.015625)"/>
      <path id="DejaVuSans-49" d="M 628 4666 
L 1259 4666 
L 1259 0 
L 628 0 
L 628 4666 
z
" transform="scale(0.015625)"/>
     </defs>
     <use xlink:href="#DejaVuSans-41"/>
     <use xlink:href="#DejaVuSans-75" transform="translate(68.408203 0)"/>
     <use xlink:href="#DejaVuSans-74" transform="translate(131.787109 0)"/>
     <use xlink:href="#DejaVuSans-6f" transform="translate(170.996094 0)"/>
     <use xlink:href="#DejaVuSans-2d" transform="translate(234.052734 0)"/>
     <use xlink:href="#DejaVuSans-43" transform="translate(270.136719 0)"/>
     <use xlink:href="#DejaVuSans-61" transform="translate(339.960938 0)"/>
     <use xlink:href="#DejaVuSans-70" transform="translate(401.240234 0)"/>
     <use xlink:href="#DejaVuSans-74" transform="translate(464.716797 0)"/>
     <use xlink:href="#DejaVuSans-75" transform="translate(503.925781 0)"/>
     <use xlink:href="#DejaVuSans-72" transform="translate(567.304688 0)"/>
     <use xlink:href="#DejaVuSans-65" transform="translate(606.167969 0)"/>
     <use xlink:href="#DejaVuSans-64" transform="translate(667.691406 0)"/>
     <use xlink:href="#DejaVuSans-20" transform="translate(731.167969 0)"/>
     <use xlink:href="#DejaVuSans-49" transform="translate(762.955078 0)"/>
     <use xlink:href="#DejaVuSans-73" transform="translate(792.447266 0)"/>
     <use xlink:href="#DejaVuSans-73" transform="translate(844.546875 0)"/>
     <use xlink:href="#DejaVuSans-75" transform="translate(896.646484 0)"/>
     <use xlink:href="#DejaVuSans-65" transform="translate(960.025391 0)"/>
     <use xlink:href="#DejaVuSans-73" transform="translate(1021.548828 0)"/>
    </g>
   </g>
   <g id="text_8">
    <!-- 1.5% -->
    <g transform="translate(228.612237 180.374658) scale(0.1 -0.1)">
     <use xlink:href="#DejaVuSans-31"/>
     <use xlink:href="#DejaVuSans-2e" transform="translate(63.623047 0)"/>
     <use xlink:href="#DejaVuSans-35" transform="translate(95.410156 0)"/>
     <use xlink:href="#DejaVuSans-25" transform="translate(159.033203 0)"/>
    </g>
    <!-- (14) -->
    <g transform="translate(231.050519 191.572471) scale(0.1 -0.1)">
     <defs>
      <path id="DejaVuSans-34" d="M 2419 4116 
L 825 1625 
L 2419 1625 
L 2419 4116 
z
M 2253 4666 
L 3047 4666 
L 3047 1625 
L 3713 1625 
L 3713 1100 
L 3047 1100 
L 3047 0 
L 2419 0 
L 2419 1100 
L 313 1100 
L 313 1709 
L 2253 4666 
z
" transform="scale(0.015625)"/>
     </defs>
     <use xlink:href="#DejaVuSans-28"/>
     <use xlink:href="#DejaVuSans-31" transform="translate(39.013672 0)"/>
     <use xlink:href="#DejaVuSans-34" transform="translate(102.636719 0)"/>
     <use xlink:href="#DejaVuSans-29" transform="translate(166.259766 0)"/>
    </g>
   </g>
   <g id="text_9">
    <!-- Epistemic Breadcrumb Distribution (N=958 total, 5.15 per session) -->
    <g transform="translate(158.74125 20.88) scale(0.12 -0.12)">
     <defs>
      <path id="DejaVuSans-6d" d="M 3328 2828 
Q 3544 3216 3844 3400 
Q 4144 3584 4550 3584 
Q 5097 3584 5394 3201 
Q 5691 2819 5691 2113 
L 5691 0 
L 5113 0 
L 5113 2094 
Q 5113 2597 4934 2840 
Q 4756 3084 4391 3084 
Q 3944 3084 3684 2787 
Q 3425 2491 3425 1978 
L 3425 0 
L 2847 0 
L 2847 2094 
Q 2847 2600 2669 2842 
Q 2491 3084 2119 3084 
Q 1678 3084 1418 2786 
Q 1159 2488 1159 1978 
L 1159 0 
L 581 0 
L 581 3500 
L 1159 3500 
L 1159 2956 
Q 1356 3278 1631 3431 
Q 1906 3584 2284 3584 
Q 2666 3584 2933 3390 
Q 3200 3197 3328 2828 
z
" transform="scale(0.015625)"/>
      <path id="DejaVuSans-63" d="M 3122 3366 
L 3122 2828 
Q 2878 2963 2633 3030 
Q 2388 3097 2138 3097 
Q 1578 3097 1268 2742 
Q 959 2388 959 1747 
Q 959 1106 1268 751 
Q 1578 397 2138 397 
Q 2388 397 2633 464 
Q 2878 531 3122 666 
L 3122 134 
Q 2881 22 2623 -34 
Q 2366 -91 2075 -91 
Q 1284 -91 818 406 
Q 353 903 353 1747 
Q 353 2603 823 3093 
Q 1294 3584 2113 3584 
Q 2378 3584 2631 3529 
Q 2884 3475 3122 3366 
z
" transform="scale(0.015625)"/>
      <path id="DejaVuSans-42" d="M 1259 2228 
L 1259 519 
L 2272 519 
Q 2781 519 3026 730 
Q 3272 941 3272 1375 
Q 3272 1813 3026 2020 
Q 2781 2228 2272 2228 
L 1259 2228 
z
M 1259 4147 
L 1259 2741 
L 2194 2741 
Q 2656 2741 2882 2914 
Q 3109 3088 3109 3444 
Q 3109 3797 2882 3972 
Q 2656 4147 2194 4147 
L 1259 4147 
z
M 628 4666 
L 2241 4666 
Q 2963 4666 3353 4366 
Q 3744 4066 3744 3513 
Q 3744 3084 3544 2831 
Q 3344 2578 2956 2516 
Q 3422 2416 3680 2098 
Q 3938 1781 3938 1306 
Q 3938 681 3513 340 
Q 3088 0 2303 0 
L 628 0 
L 628 4666 
z
" transform="scale(0.015625)"/>
      <path id="DejaVuSans-62" d="M 3116 1747 
Q 3116 2381 2855 2742 
Q 2594 3103 2138 3103 
Q 1681 3103 1420 2742 
Q 1159 2381 1159 1747 
Q 1159 1113 1420 752 
Q 1681 391 2138 391 
Q 2594 391 2855 752 
Q 3116 1113 3116 1747 
z
M 1159 2969 
Q 1341 3281 1617 3432 
Q 1894 3584 2278 3584 
Q 2916 3584 3314 3078 
Q 3713 2572 3713 1747 
Q 3713 922 3314 415 
Q 2916 -91 2278 -91 
Q 1894 -91 1617 61 
Q 1341 213 1159 525 
L 1159 0 
L 581 0 
L 581 4863 
L 1159 4863 
L 1159 2969 
z
" transform="scale(0.015625)"/>
      <path id="DejaVuSans-4e" d="M 628 4666 
L 1478 4666 
L 3547 763 
L 3547 4666 
L 4159 4666 
L 4159 0 
L 3309 0 
L 1241 3903 
L 1241 0 
L 628 0 
L 628 4666 
z
" transform="scale(0.015625)"/>
      <path id="DejaVuSans-3d" d="M 678 2906 
L 4684 2906 
L 4684 2381 
L 678 2381 
L 678 2906 
z
M 678 1631 
L 4684 1631 
L 4684 1100 
L 678 1100 
L 678 1631 
z
" transform="scale(0.015625)"/>
      <path id="DejaVuSans-6c" d="M 603 4863 
L 1178 4863 
L 1178 0 
L 603 0 
L 603 4863 
z
" transform="scale(0.015625)"/>
      <path id="DejaVuSans-2c" d="M 750 794 
L 1409 794 
L 1409 256 
L 897 -744 
L 494 -744 
L 750 256 
L 750 794 
z
" transform="scale(0.015625)"/>
     </defs>
     <use xlink:href="#DejaVuSans-45"/>
     <use xlink:href="#DejaVuSans-70" transform="translate(63.183594 0)"/>
     <use xlink:href="#DejaVuSans-69" transform="translate(126.660156 0)"/>
     <use xlink:href="#DejaVuSans-73" transform="translate(154.443359 0)"/>
     <use xlink:href="#DejaVuSans-74" transform="translate(206.542969 0)"/>
     <use xlink:href="#DejaVuSans-65" transform="translate(245.751953 0)"/>
     <use xlink:href="#DejaVuSans-6d" transform="translate(307.275391 0)"/>
     <use xlink:href="#DejaVuSans-69" transform="translate(404.6875 0)"/>
     <use xlink:href="#DejaVuSans-63" transform="translate(432.470703 0)"/>
     <use xlink:href="#DejaVuSans-20" transform="translate(487.451172 0)"/>
     <use xlink:href="#DejaVuSans-42" transform="translate(519.238281 0)"/>
     <use xlink:href="#DejaVuSans-72" transform="translate(587.841797 0)"/>
     <use xlink:href="#DejaVuSans-65" transform="translate(626.705078 0)"/>
     <use xlink:href="#DejaVuSans-61" transform="translate(688.228516 0)"/>
     <use xlink:href="#DejaVuSans-64" transform="translate(749.507812 0)"/>
     <use xlink:href="#DejaVuSans-63" transform="translate(812.984375 0)"/>
     <use xlink:href="#DejaVuSans-72" transform="translate(867.964844 0)"/>
     <use xlink:href="#DejaVuSans-75" transform="translate(909.078125 0)"/>
     <use xlink:href="#DejaVuSans-6d" transform="translate(972.457031 0)"/>
     <use xlink:href="#DejaVuSans-62" transform="translate(1069.869141 0)"/>
     <use xlink:href="#DejaVuSans-20" transform="translate(1133.345703 0)"/>
     <use xlink:href="#DejaVuSans-44" transform="translate(1165.132812 0)"/>
     <use xlink:href="#DejaVuSans-69" transform="translate(1242.134766 0)"/>
     <use xlink:href="#DejaVuSans-73" transform="translate(1269.917969 0)"/>
     <use xlink:href="#DejaVuSans-74" transform="translate(1322.017578 0)"/>
     <use xlink:href="#DejaVuSans-72" transform="translate(1361.226562 0)"/>
     <use xlink:href="#DejaVuSans-69" transform="translate(1402.339844 0)"/>
     <use xlink:href="#DejaVuSans-62" transform="translate(1430.123047 0)"/>
     <use xlink:href="#DejaVuSans-75" transform="translate(1493.599609 0)"/>
     <use xlink:href="#DejaVuSans-74" transform="translate(1556.978516 0)"/>
     <use xlink:href="#DejaVuSans-69" transform="translate(1596.1875 0)"/>
     <use xlink:href="#DejaVuSans-6f" transform="translate(1623.970703 0)"/>
     <use xlink:href="#DejaVuSans-6e" transform="translate(1685.152344 0)"/>
     <use xlink:href="#DejaVuSans-20" transform="translate(1748.53125 0)"/>
     <use xlink:href="#DejaVuSans-28" transform="translate(1780.318359 0)"/>
     <use xlink:href="#DejaVuSans-4e" transform="translate(1819.332031 0)"/>
     <use xlink:href="#DejaVuSans-3d" transform="translate(1894.136719 0)"/>
     <use xlink:href="#DejaVuSans-39" transform="translate(1977.925781 0)"/>
     <use xlink:href="#DejaVuSans-35" transform="translate(2041.548828 0)"/>
     <use xlink:href="#DejaVuSans-38" transform="translate(2105.171875 0)"/>
     <use xlink:href="#DejaVuSans-20" transform="translate(2168.794922 0)"/>
     <use xlink:href="#DejaVuSans-74" transform="translate(2200.582031 0)"/>
     <use xlink:href="#DejaVuSans-6f" transform="translate(2239.791016 0)"/>
     <use xlink:href="#DejaVuSans-74" transform="translate(2300.972656 0)"/>
     <use xlink:href="#DejaVuSans-61" transform="translate(2340.181641 0)"/>
     <use xlink:href="#DejaVuSans-6c" transform="translate(2401.460938 0)"/>
     <use xlink:href="#DejaVuSans-2c" transform="translate(2429.244141 0)"/>
     <use xlink:href="#DejaVuSans-20" transform="translate(2461.03125 0)"/>
     <use xlink:href="#DejaVuSans-35" transform="translate(2492.818359 0)"/>
     <use xlink:href="#DejaVuSans-2e" transform="translate(2556.441406 0)"/>
     <use xlink:href="#DejaVuSans-31" transform="translate(2588.228516 0)"/>
     <use xlink:href="#DejaVuSans-35" transform="translate(2651.851562 0)"/>
     <use xlink:href="#DejaVuSans-20" transform="translate(2715.474609 0)"/>
     <use xlink:href="#DejaVuSans-70" transform="translate(2747.261719 0)"/>
     <use xlink:href="#DejaVuSans-65" transform="translate(2810.738281 0)"/>
     <use xlink:href="#DejaVuSans-72" transform="translate(2872.261719 0)"/>
     <use xlink:href="#DejaVuSans-20" transform="translate(2913.375 0)"/>
     <use xlink:href="#DejaVuSans-73" transform="translate(2945.162109 0)"/>
     <use xlink:href="#DejaVuSans-65" transform="translate(2997.261719 0)"/>
     <use xlink:href="#DejaVuSans-73" transform="translate(3058.785156 0)"/>
     <use xlink:href="#DejaVuSans-73" transform="translate(3110.884766 0)"/>
     <use xlink:href="#DejaVuSans-69" transform="translate(3162.984375 0)"/>
     <use xlink:href="#DejaVuSans-6f" transform="translate(3190.767578 0)"/>
     <use xlink:href="#DejaVuSans-6e" transform="translate(3251.949219 0)"/>
     <use xlink:href="#DejaVuSans-29" transform="translate(3315.328125 0)"/>
    </g>
   </g>
  </g>
 </g>
</svg>
